<?xml version="1.0" encoding="utf-8"?>
<?xml-stylesheet type="text/css" href="../../singolo2.css" ?>
<svg class="icon-twiter" height="12" width="14" xmlns="http://www.w3.org/2000/svg" viewBox="0 0 92 74.76">
    <defs>
        <style>.cls-1{fill:#666d89;}</style>
    </defs>
    <title>icon-Ресурс 1</title>
    <g id="Слой_2" data-name="Слой 2">
        <g id="All_glyphs" data-name="All glyphs">
            <path class="cls-1" d="M92,8.85a37.59,37.59,0,0,1-10.84,3,19,19,0,0,0,8.3-10.44A38,38,0,0,1,77.47,6,18.89,18.89,0,0,0,45.3,23.17,53.56,53.56,0,0,1,6.4,3.45a18.88,18.88,0,0,0,5.84,25.2,18.91,18.91,0,0,1-8.55-2.36v.24A18.89,18.89,0,0,0,18.83,45a18.9,18.9,0,0,1-8.52.32A18.9,18.9,0,0,0,27.94,58.47,37.89,37.89,0,0,1,4.5,66.55,37.12,37.12,0,0,1,0,66.28a53.36,53.36,0,0,0,28.93,8.48c34.72,0,53.7-28.76,53.7-53.71,0-.82,0-1.63,0-2.44A38,38,0,0,0,92,8.85Z"/>
        </g>
    </g>
</svg>