<?xml version="1.0" encoding="utf-8"?>
<?xml-stylesheet type="text/css" href="../../singolo2.css" ?>
<svg  height="14"  width="14"
    xmlns="http://www.w3.org/2000/svg" viewBox="0 0 89.62 87.99">
    <defs>
        <style>.cls-1{fill:#666d89;}</style>
    </defs>
    <title>google</title>
    <g id="path_2" data-name="path 2">
        <g id="All_glyphs" data-name="All glyphs">
            <path class="cls-1" d="M4.76,21.93c0,7.47,2.49,12.86,7.41,16a21.16,21.16,0,0,0,11.13,3c.59,0,1.06,0,1.39,0a14.34,14.34,0,0,0,2.95,10h-.17C21,50.88,0,52.23,0,69.51,0,87.09,19.31,88,23.18,88h1.27a35.75,35.75,0,0,0,14.88-3.21C47.07,81,51,74.49,51,65.36c0-8.83-6-14.08-10.35-17.92-2.67-2.34-5-4.36-5-6.32s1.68-3.5,3.81-5.41c3.45-3.08,6.69-7.47,6.69-15.75,0-7.29-1-12.18-6.77-15.28A20.18,20.18,0,0,1,43.22,4C46.37,3.57,51,3.08,51,.5V0H28C27.78,0,4.76.84,4.76,21.93ZM41.88,67c.44,7-5.58,12.22-14.61,12.88S10.54,76.41,10.1,69.39a11.63,11.63,0,0,1,4.18-9.32,19.07,19.07,0,0,1,11.39-4.64c.52,0,1,0,1.55,0C35.71,55.38,41.46,60.37,41.88,67Zm-6-49.88c2.26,7.93-1.15,16.23-6.58,17.76a7.29,7.29,0,0,1-1.92.26c-5,0-9.9-5-11.72-12a17.3,17.3,0,0,1,.23-10.57C17,9.38,19.09,7.21,21.69,6.48a7,7,0,0,1,1.92-.27C29.62,6.22,33.48,8.71,35.87,17.11ZM74.62,34.39v-15h-9.5v15h-15v9.5h15v15h9.5v-15h15v-9.5Z"/>
        </g>
    </g>
</svg>